<svg version="1.1" viewBox="0 0 67 67" xml:space="preserve" xmlns="http://www.w3.org/2000/svg" xmlns:xlink="http://www.w3.org/1999/xlink"><path d="M33,4C16.432,4,3,17.431,3,34s13.432,30,30,30s30-13.431,30-30S49.568,4,33,4z M35.557,43.228 c-1.888-0.146-2.678-1.082-4.158-1.983c-0.812,4.266-1.806,8.354-4.748,10.492c-0.908-6.44,1.332-11.279,2.373-16.411 c-1.775-2.986,0.213-9.001,3.953-7.521c4.602,1.82-3.984,11.101,1.781,12.263c6.016,1.212,8.473-10.461,4.742-14.26 c-5.386-5.466-15.674-0.125-14.408,7.697c0.311,1.911,2.31,2.492,0.799,5.132c-3.486-0.773-4.527-3.521-4.395-7.184 c0.218-5.997,5.387-10.193,10.571-10.785c6.562-0.748,12.721,2.411,13.573,8.595C46.245,36.028,42.552,43.766,35.557,43.228z" style="fill-rule:evenodd;clip-rule:evenodd;"/></svg>
