<svg xmlns="http://www.w3.org/2000/svg" xmlns:xlink="http://www.w3.org/1999/xlink" viewBox="0 0 128 128">
  <defs>
    <radialGradient cx="19.1111" cy="128.4444" gradientUnits="userSpaceOnUse" id="Instagram_2_" r="163.5519">
      <stop offset="0" style="stop-color:#FFB140"/>
      <stop offset="0.2559" style="stop-color:#FF5445"/>
      <stop offset="0.599" style="stop-color:#FC2B82"/>
      <stop offset="1" style="stop-color:#8E40B7"/>
    </radialGradient>
  </defs>
  <path clip-rule="evenodd" d="M64,0C46.619,0,44.439,0.074,37.613,0.385C30.801,0.696,26.148,1.778,22.078,3.36c-4.209,1.635-7.778,3.824-11.336,7.382C7.184,14.3,4.995,17.869,3.36,22.078c-1.582,4.071-2.664,8.723-2.975,15.535C0.074,44.439,0,46.619,0,64c0,17.381,0.074,19.561,0.385,26.387c0.311,6.812,1.393,11.464,2.975,15.535c1.635,4.209,3.824,7.778,7.382,11.336c3.558,3.558,7.127,5.746,11.336,7.382c4.071,1.582,8.723,2.664,15.535,2.975C44.439,127.926,46.619,128,64,128c17.381,0,19.561-0.074,26.387-0.385c6.812-0.311,11.464-1.393,15.535-2.975c4.209-1.636,7.778-3.824,11.336-7.382c3.558-3.558,5.746-7.127,7.382-11.336c1.582-4.071,2.664-8.723,2.975-15.535C127.926,83.561,128,81.381,128,64c0-17.381-0.074-19.561-0.385-26.387c-0.311-6.812-1.393-11.464-2.975-15.535c-1.636-4.209-3.824-7.778-7.382-11.336c-3.558-3.558-7.127-5.746-11.336-7.382c-4.071-1.582-8.723-2.664-15.535-2.975C83.561,0.074,81.381,0,64,0z" fill="url(#Instagram_2_)" fill-rule="evenodd"/>
  <path clip-rule="evenodd" d="M64,31.135c-18.151,0-32.865,14.714-32.865,32.865c0,18.151,14.714,32.865,32.865,32.865c18.151,0,32.865-14.714,32.865-32.865C96.865,45.849,82.151,31.135,64,31.135z M64,85.333c-11.782,0-21.333-9.551-21.333-21.333c0-11.782,9.551-21.333,21.333-21.333c11.782,0,21.333,9.551,21.333,21.333C85.333,75.782,75.782,85.333,64,85.333z" fill="white" fill-rule="evenodd"/>
  <circle cx="98.163" cy="29.837" r="7.68" fill="white"/>
</svg>